<svg id="visual" viewBox="0 0 960 300" width="960" height="300" xmlns="http://www.w3.org/2000/svg" xmlns:xlink="http://www.w3.org/1999/xlink" version="1.1"><rect x="0" y="0" width="960" height="300" fill="#a7ebfa"></rect><path d="M0 167L14.5 164.7C29 162.3 58 157.7 87.2 161.3C116.3 165 145.7 177 174.8 180.2C204 183.3 233 177.7 262 174.3C291 171 320 170 349 173.7C378 177.3 407 185.7 436.2 190.8C465.3 196 494.7 198 523.8 198.2C553 198.3 582 196.7 611 190.8C640 185 669 175 698 168.2C727 161.3 756 157.7 785.2 162.3C814.3 167 843.7 180 872.8 181.8C902 183.7 931 174.3 945.5 169.7L960 165L960 301L945.5 301C931 301 902 301 872.8 301C843.7 301 814.3 301 785.2 301C756 301 727 301 698 301C669 301 640 301 611 301C582 301 553 301 523.8 301C494.7 301 465.3 301 436.2 301C407 301 378 301 349 301C320 301 291 301 262 301C233 301 204 301 174.8 301C145.7 301 116.3 301 87.2 301C58 301 29 301 14.5 301L0 301Z" fill="#fff2c1"></path><path d="M0 172L14.5 177.2C29 182.3 58 192.7 87.2 196.7C116.3 200.7 145.7 198.3 174.8 196.5C204 194.7 233 193.3 262 193.3C291 193.3 320 194.7 349 191.8C378 189 407 182 436.2 185.8C465.3 189.7 494.7 204.3 523.8 206.7C553 209 582 199 611 195.2C640 191.3 669 193.7 698 191C727 188.3 756 180.7 785.2 177.3C814.3 174 843.7 175 872.8 178.2C902 181.3 931 186.7 945.5 189.3L960 192L960 301L945.5 301C931 301 902 301 872.8 301C843.7 301 814.3 301 785.2 301C756 301 727 301 698 301C669 301 640 301 611 301C582 301 553 301 523.8 301C494.7 301 465.3 301 436.2 301C407 301 378 301 349 301C320 301 291 301 262 301C233 301 204 301 174.8 301C145.7 301 116.3 301 87.2 301C58 301 29 301 14.5 301L0 301Z" fill="#d0e3b1"></path><path d="M0 196L14.5 202C29 208 58 220 87.2 224.2C116.3 228.3 145.7 224.7 174.8 218.7C204 212.7 233 204.3 262 201.3C291 198.3 320 200.7 349 202.2C378 203.7 407 204.3 436.2 205.7C465.3 207 494.7 209 523.8 211.5C553 214 582 217 611 219.2C640 221.3 669 222.7 698 224.8C727 227 756 230 785.2 230.7C814.3 231.3 843.7 229.7 872.8 223C902 216.3 931 204.7 945.5 198.8L960 193L960 301L945.5 301C931 301 902 301 872.8 301C843.7 301 814.3 301 785.2 301C756 301 727 301 698 301C669 301 640 301 611 301C582 301 553 301 523.8 301C494.7 301 465.3 301 436.2 301C407 301 378 301 349 301C320 301 291 301 262 301C233 301 204 301 174.8 301C145.7 301 116.3 301 87.2 301C58 301 29 301 14.5 301L0 301Z" fill="#9fd3ac"></path><path d="M0 224L14.5 226.3C29 228.7 58 233.3 87.2 233.8C116.3 234.3 145.7 230.7 174.8 229.5C204 228.3 233 229.7 262 229.7C291 229.7 320 228.3 349 231.3C378 234.3 407 241.7 436.2 244C465.3 246.3 494.7 243.7 523.8 239C553 234.3 582 227.7 611 228.8C640 230 669 239 698 237C727 235 756 222 785.2 222.3C814.3 222.7 843.7 236.3 872.8 241.2C902 246 931 242 945.5 240L960 238L960 301L945.5 301C931 301 902 301 872.8 301C843.7 301 814.3 301 785.2 301C756 301 727 301 698 301C669 301 640 301 611 301C582 301 553 301 523.8 301C494.7 301 465.3 301 436.2 301C407 301 378 301 349 301C320 301 291 301 262 301C233 301 204 301 174.8 301C145.7 301 116.3 301 87.2 301C58 301 29 301 14.5 301L0 301Z" fill="#6dc1ae"></path><path d="M0 239L14.5 239.8C29 240.7 58 242.3 87.2 245.8C116.3 249.3 145.7 254.7 174.8 257.3C204 260 233 260 262 257.5C291 255 320 250 349 246.3C378 242.7 407 240.3 436.2 240.3C465.3 240.3 494.7 242.7 523.8 244.5C553 246.3 582 247.7 611 248.3C640 249 669 249 698 247.8C727 246.7 756 244.3 785.2 241.3C814.3 238.3 843.7 234.7 872.8 233.3C902 232 931 233 945.5 233.5L960 234L960 301L945.5 301C931 301 902 301 872.8 301C843.7 301 814.3 301 785.2 301C756 301 727 301 698 301C669 301 640 301 611 301C582 301 553 301 523.8 301C494.7 301 465.3 301 436.2 301C407 301 378 301 349 301C320 301 291 301 262 301C233 301 204 301 174.8 301C145.7 301 116.3 301 87.2 301C58 301 29 301 14.5 301L0 301Z" fill="#3badb3"></path><path d="M0 273L14.5 270.8C29 268.7 58 264.3 87.2 263C116.3 261.7 145.7 263.3 174.8 261.7C204 260 233 255 262 255.8C291 256.7 320 263.3 349 266C378 268.7 407 267.3 436.2 267C465.3 266.7 494.7 267.3 523.8 264.2C553 261 582 254 611 254.3C640 254.7 669 262.3 698 266.7C727 271 756 272 785.2 272.5C814.3 273 843.7 273 872.8 271.5C902 270 931 267 945.5 265.5L960 264L960 301L945.5 301C931 301 902 301 872.8 301C843.7 301 814.3 301 785.2 301C756 301 727 301 698 301C669 301 640 301 611 301C582 301 553 301 523.8 301C494.7 301 465.3 301 436.2 301C407 301 378 301 349 301C320 301 291 301 262 301C233 301 204 301 174.8 301C145.7 301 116.3 301 87.2 301C58 301 29 301 14.5 301L0 301Z" fill="#0c96b6"></path><path d="M0 276L14.5 275.5C29 275 58 274 87.2 273.2C116.3 272.3 145.7 271.7 174.8 272.5C204 273.3 233 275.7 262 278.2C291 280.7 320 283.3 349 281.7C378 280 407 274 436.2 273.8C465.3 273.7 494.7 279.3 523.8 279.7C553 280 582 275 611 273.8C640 272.7 669 275.3 698 277.2C727 279 756 280 785.2 281C814.3 282 843.7 283 872.8 282C902 281 931 278 945.5 276.5L960 275L960 301L945.5 301C931 301 902 301 872.8 301C843.7 301 814.3 301 785.2 301C756 301 727 301 698 301C669 301 640 301 611 301C582 301 553 301 523.8 301C494.7 301 465.3 301 436.2 301C407 301 378 301 349 301C320 301 291 301 262 301C233 301 204 301 174.8 301C145.7 301 116.3 301 87.2 301C58 301 29 301 14.5 301L0 301Z" fill="#257db0"></path></svg>