<svg id="visual" viewBox="0 0 900 600" width="900" height="600" xmlns="http://www.w3.org/2000/svg" xmlns:xlink="http://www.w3.org/1999/xlink" version="1.1"><rect x="0" y="0" width="900" height="600" fill="#c8f9f9"></rect><path d="M0 336L13.7 331C27.3 326 54.7 316 82 323.2C109.3 330.3 136.7 354.7 163.8 361.2C191 367.7 218 356.3 245.2 349.5C272.3 342.7 299.7 340.3 327 347.5C354.3 354.7 381.7 371.3 409 381.8C436.3 392.3 463.7 396.7 491 397.2C518.3 397.7 545.7 394.3 573 382.5C600.3 370.7 627.7 350.3 654.8 336.7C682 323 709 316 736.2 325.7C763.3 335.3 790.7 361.7 818 365.3C845.3 369 872.7 350 886.3 340.5L900 331L900 601L886.3 601C872.7 601 845.3 601 818 601C790.7 601 763.3 601 736.2 601C709 601 682 601 654.8 601C627.7 601 600.3 601 573 601C545.7 601 518.3 601 491 601C463.7 601 436.3 601 409 601C381.7 601 354.3 601 327 601C299.7 601 272.3 601 245.2 601C218 601 191 601 163.8 601C136.7 601 109.3 601 82 601C54.7 601 27.3 601 13.7 601L0 601Z" fill="#ffdf6a"></path><path d="M0 344L13.7 354.5C27.3 365 54.7 386 82 394.2C109.3 402.3 136.7 397.7 163.8 394C191 390.3 218 387.7 245.2 387.7C272.3 387.7 299.7 390.3 327 384.7C354.3 379 381.7 365 409 372.7C436.3 380.3 463.7 409.7 491 414.5C518.3 419.3 545.7 399.7 573 392C600.3 384.3 627.7 388.7 654.8 383.2C682 377.7 709 362.3 736.2 355.7C763.3 349 790.7 351 818 357.3C845.3 363.7 872.7 374.3 886.3 379.7L900 385L900 601L886.3 601C872.7 601 845.3 601 818 601C790.7 601 763.3 601 736.2 601C709 601 682 601 654.8 601C627.7 601 600.3 601 573 601C545.7 601 518.3 601 491 601C463.7 601 436.3 601 409 601C381.7 601 354.3 601 327 601C299.7 601 272.3 601 245.2 601C218 601 191 601 163.8 601C136.7 601 109.3 601 82 601C54.7 601 27.3 601 13.7 601L0 601Z" fill="#bbde71"></path><path d="M0 394L13.7 405.7C27.3 417.3 54.7 440.7 82 448.8C109.3 457 136.7 450 163.8 438.2C191 426.3 218 409.7 245.2 403.7C272.3 397.7 299.7 402.3 327 405.5C354.3 408.7 381.7 410.3 409 412.8C436.3 415.3 463.7 418.7 491 423.5C518.3 428.3 545.7 434.7 573 439.2C600.3 443.7 627.7 446.3 654.8 450.8C682 455.3 709 461.7 736.2 463C763.3 464.3 790.7 460.7 818 447.3C845.3 434 872.7 411 886.3 399.5L900 388L900 601L886.3 601C872.7 601 845.3 601 818 601C790.7 601 763.3 601 736.2 601C709 601 682 601 654.8 601C627.7 601 600.3 601 573 601C545.7 601 518.3 601 491 601C463.7 601 436.3 601 409 601C381.7 601 354.3 601 327 601C299.7 601 272.3 601 245.2 601C218 601 191 601 163.8 601C136.7 601 109.3 601 82 601C54.7 601 27.3 601 13.7 601L0 601Z" fill="#75d78c"></path><path d="M0 449L13.7 453.7C27.3 458.3 54.7 467.7 82 468.5C109.3 469.3 136.7 461.7 163.8 459.3C191 457 218 460 245.2 460.2C272.3 460.3 299.7 457.7 327 463.7C354.3 469.7 381.7 484.3 409 488.8C436.3 493.3 463.7 487.7 491 478.5C518.3 469.3 545.7 456.7 573 459C600.3 461.3 627.7 478.7 654.8 474.7C682 470.7 709 445.3 736.2 446.2C763.3 447 790.7 474 818 483.3C845.3 492.7 872.7 484.3 886.3 480.2L900 476L900 601L886.3 601C872.7 601 845.3 601 818 601C790.7 601 763.3 601 736.2 601C709 601 682 601 654.8 601C627.7 601 600.3 601 573 601C545.7 601 518.3 601 491 601C463.7 601 436.3 601 409 601C381.7 601 354.3 601 327 601C299.7 601 272.3 601 245.2 601C218 601 191 601 163.8 601C136.7 601 109.3 601 82 601C54.7 601 27.3 601 13.7 601L0 601Z" fill="#00cbab"></path><path d="M0 479L13.7 480.5C27.3 482 54.7 485 82 492.2C109.3 499.3 136.7 510.7 163.8 516.2C191 521.7 218 521.3 245.2 516C272.3 510.7 299.7 500.3 327 493C354.3 485.7 381.7 481.3 409 481.3C436.3 481.3 463.7 485.7 491 489.2C518.3 492.7 545.7 495.3 573 496.8C600.3 498.3 627.7 498.7 654.8 496.7C682 494.7 709 490.3 736.2 484.2C763.3 478 790.7 470 818 467.2C845.3 464.3 872.7 466.7 886.3 467.8L900 469L900 601L886.3 601C872.7 601 845.3 601 818 601C790.7 601 763.3 601 736.2 601C709 601 682 601 654.8 601C627.7 601 600.3 601 573 601C545.7 601 518.3 601 491 601C463.7 601 436.3 601 409 601C381.7 601 354.3 601 327 601C299.7 601 272.3 601 245.2 601C218 601 191 601 163.8 601C136.7 601 109.3 601 82 601C54.7 601 27.3 601 13.7 601L0 601Z" fill="#00bac6"></path><path d="M0 548L13.7 543.3C27.3 538.7 54.7 529.3 82 526.5C109.3 523.7 136.7 527.3 163.8 524.2C191 521 218 511 245.2 512.7C272.3 514.3 299.7 527.7 327 533C354.3 538.3 381.7 535.7 409 535C436.3 534.3 463.7 535.7 491 529.2C518.3 522.7 545.7 508.3 573 509.2C600.3 510 627.7 526 654.8 534.8C682 543.7 709 545.3 736.2 546.2C763.3 547 790.7 547 818 543.8C845.3 540.7 872.7 534.3 886.3 531.2L900 528L900 601L886.3 601C872.7 601 845.3 601 818 601C790.7 601 763.3 601 736.2 601C709 601 682 601 654.8 601C627.7 601 600.3 601 573 601C545.7 601 518.3 601 491 601C463.7 601 436.3 601 409 601C381.7 601 354.3 601 327 601C299.7 601 272.3 601 245.2 601C218 601 191 601 163.8 601C136.7 601 109.3 601 82 601C54.7 601 27.3 601 13.7 601L0 601Z" fill="#00a6d3"></path><path d="M0 553L13.7 551.8C27.3 550.7 54.7 548.3 82 546.8C109.3 545.3 136.7 544.7 163.8 546.5C191 548.3 218 552.7 245.2 557.7C272.3 562.7 299.7 568.3 327 565.2C354.3 562 381.7 550 409 549.5C436.3 549 463.7 560 491 560.7C518.3 561.3 545.7 551.7 573 549.3C600.3 547 627.7 552 654.8 555.3C682 558.7 709 560.3 736.2 562.3C763.3 564.3 790.7 566.7 818 564.8C845.3 563 872.7 557 886.3 554L900 551L900 601L886.3 601C872.7 601 845.3 601 818 601C790.7 601 763.3 601 736.2 601C709 601 682 601 654.8 601C627.7 601 600.3 601 573 601C545.7 601 518.3 601 491 601C463.7 601 436.3 601 409 601C381.7 601 354.3 601 327 601C299.7 601 272.3 601 245.2 601C218 601 191 601 163.8 601C136.7 601 109.3 601 82 601C54.7 601 27.3 601 13.7 601L0 601Z" fill="#208fcf"></path></svg>